<?xml version="1.0" standalone="no"?><!DOCTYPE svg PUBLIC "-//W3C//DTD SVG 1.1//EN" "http://www.w3.org/Graphics/SVG/1.1/DTD/svg11.dtd"><svg t="1617533326107" class="icon" viewBox="0 0 1024 1024" version="1.1" xmlns="http://www.w3.org/2000/svg" p-id="1363" xmlns:xlink="http://www.w3.org/1999/xlink" width="200" height="200"><defs><style type="text/css"></style></defs><path d="M610.133333 917.333333c-215.466667 0-392.533333-181.333333-392.533333-405.333333S394.666667 106.666667 610.133333 106.666667C827.733333 106.666667 1002.666667 288 1002.666667 512s-174.933333 405.333333-392.533334 405.333333z m0-768c-192 0-349.866667 162.133333-349.866666 362.666667s155.733333 362.666667 349.866666 362.666667c192 0 349.866667-162.133333 349.866667-362.666667S804.266667 149.333333 610.133333 149.333333z" fill="#42B983" p-id="1364"></path><path d="M957.866667 893.866667c-6.4 0-10.666667-2.133333-14.933334-6.4l-66.133333-68.266667c-8.533333-8.533333-8.533333-21.333333 0-29.866667 8.533333-8.533333 21.333333-8.533333 29.866667 0l66.133333 68.266667c8.533333 8.533333 8.533333 21.333333 0 29.866667-4.266667 4.266667-8.533333 6.4-14.933333 6.4zM305.066667 151.466667H42.666667c-12.8 0-21.333333-8.533333-21.333334-21.333334s8.533333-21.333333 21.333334-21.333333h262.4c12.8 0 21.333333 8.533333 21.333333 21.333333s-8.533333 21.333333-21.333333 21.333334zM157.866667 396.8H42.666667c-12.8 0-21.333333-8.533333-21.333334-21.333333s8.533333-21.333333 21.333334-21.333334h115.2c12.8 0 21.333333 8.533333 21.333333 21.333334s-10.666667 21.333333-21.333333 21.333333zM157.866667 640H42.666667c-12.8 0-21.333333-8.533333-21.333334-21.333333s8.533333-21.333333 21.333334-21.333334h115.2c12.8 0 21.333333 8.533333 21.333333 21.333334s-10.666667 21.333333-21.333333 21.333333z" fill="#42B983" p-id="1365"></path><path d="M273.066667 883.2H42.666667c-12.8 0-21.333333-8.533333-21.333334-21.333333s8.533333-21.333333 21.333334-21.333334h230.4c12.8 0 21.333333 8.533333 21.333333 21.333334s-10.666667 21.333333-21.333333 21.333333z" fill="#42B983" p-id="1366"></path></svg>