<?xml version="1.0" standalone="no"?><!DOCTYPE svg PUBLIC "-//W3C//DTD SVG 1.1//EN" "http://www.w3.org/Graphics/SVG/1.1/DTD/svg11.dtd"><svg t="1617533470905" class="icon" viewBox="0 0 1025 1024" version="1.1" xmlns="http://www.w3.org/2000/svg" p-id="1842" xmlns:xlink="http://www.w3.org/1999/xlink" width="200.1953125" height="200"><defs><style type="text/css"></style></defs><path d="M21.333333 441.6c-6.4 0-12.8-4.266667-17.066666-8.533333-6.4-10.666667-4.266667-23.466667 6.4-29.866667l490.666666-334.933333c6.4-4.266667 17.066667-4.266667 23.466667 0l490.666667 332.8c10.666667 6.4 12.8 19.2 6.4 29.866666-6.4 10.666667-19.2 12.8-29.866667 6.4L512 110.933333 34.133333 437.333333c-4.266667 2.133333-8.533333 4.266667-12.8 4.266667z" fill="#42B983" p-id="1843"></path><path d="M362.666667 960h-121.6C179.2 960 128 908.8 128 849.066667V332.8c0-12.8 8.533333-21.333333 21.333333-21.333333s21.333333 8.533333 21.333334 21.333333v516.266667c0 38.4 32 68.266667 70.4 68.266666H362.666667c12.8 0 21.333333 8.533333 21.333333 21.333334s-8.533333 21.333333-21.333333 21.333333z" fill="#42B983" p-id="1844"></path><path d="M782.933333 960H362.666667c-12.8 0-21.333333-8.533333-21.333334-21.333333s8.533333-21.333333 21.333334-21.333334h420.266666c38.4 0 70.4-32 70.4-68.266666V330.666667c0-12.8 8.533333-21.333333 21.333334-21.333334s21.333333 8.533333 21.333333 21.333334v518.4c0 59.733333-51.2 110.933333-113.066667 110.933333z" fill="#42B983" p-id="1845"></path><path d="M661.333333 960c-12.8 0-21.333333-8.533333-21.333333-21.333333V689.066667c0-34.133333-29.866667-64-66.133333-64H448c-36.266667 0-66.133333 27.733333-66.133333 64V938.666667c0 12.8-8.533333 21.333333-21.333334 21.333333s-21.333333-8.533333-21.333333-21.333333V689.066667c0-59.733333 49.066667-106.666667 108.8-106.666667h125.866667c59.733333 0 108.8 46.933333 108.8 106.666667V938.666667c0 12.8-8.533333 21.333333-21.333334 21.333333z" fill="#42B983" p-id="1846"></path></svg>