<?xml version="1.0" standalone="no"?><!DOCTYPE svg PUBLIC "-//W3C//DTD SVG 1.1//EN" "http://www.w3.org/Graphics/SVG/1.1/DTD/svg11.dtd"><svg t="1617533403944" class="icon" viewBox="0 0 1024 1024" version="1.1" xmlns="http://www.w3.org/2000/svg" p-id="1606" xmlns:xlink="http://www.w3.org/1999/xlink" width="200" height="200"><defs><style type="text/css"></style></defs><path d="M512 612.266667c-153.6 0-277.333333-123.733333-277.333333-275.2S358.4 64 512 64s277.333333 123.733333 277.333333 275.2-123.733333 273.066667-277.333333 273.066667zM512 106.666667c-130.133333 0-234.666667 104.533333-234.666667 232.533333s104.533333 232.533333 234.666667 232.533333 234.666667-104.533333 234.666667-232.533333S642.133333 106.666667 512 106.666667z" fill="#2c2c2c" p-id="1607"></path><path d="M768 960H256c-12.8 0-21.333333-8.533333-21.333333-21.333333v-96c0-151.466667 123.733333-275.2 277.333333-275.2s277.333333 123.733333 277.333333 275.2V938.666667c0 12.8-8.533333 21.333333-21.333333 21.333333z m-490.666667-42.666667h469.333334v-74.666666c0-128-104.533333-232.533333-234.666667-232.533334s-234.666667 104.533333-234.666667 232.533334V917.333333z" fill="#2c2c2c" p-id="1608"></path></svg>